# xmcd
#
# Track frame offsets: 
#        150
#        23287
#        36880
#        49805
#        65412
#        75865
#        95390
#        115265
#        131542
#        138550
#        155434
#        172897
#        187335
#        202067
#        211890
#        224200
#        235320
#
# Disc length: 3356 seconds
#
# Revision: 0
# Processed by: cddbd v1.5.1PL2 Copyright (c) Steve Scherf et al.
# Submitted via: ExactAudioCopy v0.95a5
#
DISCID=f10d1a11
DTITLE=Kenny "Blue" Ray - Cadillac Tone
DYEAR=1995
DGENRE=Blues
TTITLE0=Howlin For My Darlin
TTITLE1=Mississippi Hop
TTITLE2=Maudie
TTITLE3=Never Miss The Water
TTITLE4=Lotta Latte
TTITLE5=Stop Breakin' Down
TTITLE6=Date Bait
TTITLE7=Wildcat Tamer
TTITLE8=Blue Bone
TTITLE9=Let's Get High
TTITLE10=Write My Baby
TTITLE11=Mojo Bone
TTITLE12=Eyesight To The Blind
TTITLE13=Kool Aide
TTITLE14=I'm Tore Up
TTITLE15=Burt's Boogie
TTITLE16=For Stevie Ray and Jimi
EXTD=
EXTT0=
EXTT1=
EXTT2=
EXTT3=
EXTT4=
EXTT5=
EXTT6=
EXTT7=
EXTT8=
EXTT9=
EXTT10=
EXTT11=
EXTT12=
EXTT13=
EXTT14=
EXTT15=
EXTT16=
PLAYORDER=
